# File produced by Open Asset Import Library (http://www.assimp.sf.net)
# (assimp v5.0.1588609223)

mtllib cylinder.mtl
# 288 vertex positions
v  0 74.999985 -100.00002
v  0 99.999985 -100.00002
v  19.509033 99.999985 -98.078537
v  19.509033 74.999985 -98.078537
v  38.268345 99.999985 -92.387962
v  38.268345 74.999985 -92.387962
v  55.557026 99.999985 -83.146973
v  55.557026 74.999985 -83.146973
v  70.710678 99.999985 -70.710693
v  70.710678 74.999985 -70.710693
v  83.146957 99.999992 -55.557041
v  83.146957 74.999992 -55.557037
v  92.387947 99.999992 -38.268356
v  92.387947 74.999992 -38.268353
v  98.078522 100 -19.509052
v  98.078522 75 -19.509047
v  100 100 -1.1920929e-05
v  100 75 -7.8479115e-06
v  98.078522 100 19.509016
v  98.078522 75 19.509022
v  92.387955 100.00001 38.268326
v  92.387955 75.000008 38.26833
v  83.146965 100.00001 55.557003
v  83.146965 75.000008 55.557007
v  70.710678 100.00002 70.710663
v  70.710678 75.000015 70.710663
v  55.557018 100.00002 83.14695
v  55.557018 75.000015 83.14695
v  38.268349 100.00002 92.387932
v  38.268349 75.000015 92.387932
v  19.509031 100.00002 98.078514
v  19.509031 75.000015 98.078514
v  -8.7422777e-06 100.00002 99.999985
v  -8.7422777e-06 75.000015 99.999985
v  -19.509026 100.00002 98.078514
v  -19.509026 75.000015 98.078514
v  -38.268341 100.00002 92.387932
v  -38.268341 75.000015 92.387932
v  -55.55703 100.00002 83.146942
v  -55.55703 75.000015 83.146942
v  -70.71067 100.00002 70.71067
v  -70.71067 75.000015 70.71067
v  -83.14695 100.00001 55.557026
v  -83.14695 75.000008 55.55703
v  -92.387947 100.00001 38.268341
v  -92.387947 75.000008 38.268345
v  -98.078522 100 19.509022
v  -98.078522 75 19.509027
v  -100 100 -1.7484555e-05
v  -100 75 -1.3411538e-05
v  -98.078522 100 -19.509058
v  -98.078522 75 -19.509052
v  -92.387947 99.999992 -38.268375
v  -92.387947 74.999992 -38.268372
v  -83.146973 99.999992 -55.557022
v  -83.146973 74.999992 -55.557018
v  -70.710686 99.999985 -70.710686
v  -70.710686 74.999985 -70.710686
v  -55.55703 99.999985 -83.146973
v  -55.55703 74.999985 -83.146973
v  -38.268341 99.999985 -92.38797
v  -38.268341 74.999985 -92.38797
v  -19.509024 99.999985 -98.078545
v  -19.509024 74.999985 -98.078545
v  0 -100.00002 -99.999985
v  19.509033 -100.00002 -98.078506
v  38.268345 -100.00002 -92.387932
v  55.557026 -100.00002 -83.146942
v  70.710678 -100.00002 -70.710663
v  83.146957 -100.00001 -55.557011
v  92.387947 -100.00001 -38.268326
v  98.078522 -100 -19.509018
v  100 -100 2.0663207e-05
v  98.078522 -100 19.50905
v  92.387955 -99.999992 38.268356
v  83.146965 -99.999992 55.557034
v  70.710678 -99.999985 70.710693
v  55.557018 -99.999985 83.14698
v  38.268349 -99.999985 92.387962
v  19.509031 -99.999985 98.078545
v  -8.7422777e-06 -99.999985 100.00002
v  -19.509026 -99.999985 98.078545
v  -38.268341 -99.999985 92.387962
v  -55.55703 -99.999985 83.146973
v  -70.71067 -99.999985 70.710701
v  -83.14695 -99.999992 55.557056
v  -92.387947 -99.999992 38.268372
v  -98.078522 -100 19.509056
v  -100 -100 1.509958e-05
v  -98.078522 -100 -19.509024
v  -92.387947 -100.00001 -38.268345
v  -83.146973 -100.00001 -55.556992
v  -70.710686 -100.00002 -70.710655
v  -55.55703 -100.00002 -83.146942
v  -38.268341 -100.00002 -92.387939
v  -19.509024 -100.00002 -98.078514
v  -19.509024 -25.000015 -98.078522
v  -19.509024 -1.5979022e-05 -98.078529
v  0 -1.6292068e-05 -100
v  0 -25.000017 -99.999992
v  -38.268341 -25.000015 -92.387947
v  -38.268341 -1.5051908e-05 -92.387955
v  -55.55703 -25.000013 -83.14695
v  -55.55703 -1.3546359e-05 -83.146957
v  -70.710686 -25.000011 -70.710663
v  -70.710686 -1.152023e-05 -70.71067
v  -83.146973 -25.00001 -55.557003
v  -83.146973 -9.0513849e-06 -55.557007
v  -92.387947 -25.000006 -38.268356
v  -92.387947 -6.2347071e-06 -38.26836
v  -98.078522 -25.000004 -19.509037
v  -98.078522 -3.1784261e-06 -19.509041
v  -100 -25 2.8805289e-06
v  -100 -1.9428097e-13 -1.1924881e-06
v  -98.078522 -24.999996 19.509043
v  -98.078522 3.1784257e-06 19.509039
v  -92.387947 -24.999994 38.26836
v  -92.387947 6.2347067e-06 38.268356
v  -83.14695 -24.99999 55.557045
v  -83.14695 9.0513913e-06 55.557041
v  -70.71067 -24.999989 70.710693
v  -70.71067 1.1520232e-05 70.710686
v  -55.55703 -24.999987 83.146965
v  -55.55703 1.3546358e-05 83.146957
v  -38.268341 -24.999985 92.387955
v  -38.268341 1.5051907e-05 92.387947
v  -19.509026 -24.999985 98.078537
v  -19.509026 1.5979022e-05 98.078529
v  -8.7422777e-06 -24.999983 100.00001
v  -8.7422777e-06 1.6292068e-05 100
v  19.509031 -24.999985 98.078537
v  19.509031 1.5979022e-05 98.078529
v  38.268349 -24.999985 92.387955
v  38.268349 1.5051907e-05 92.387947
v  55.557018 -24.999987 83.146973
v  55.557018 1.354636e-05 83.146965
v  70.710678 -24.999989 70.710686
v  70.710678 1.1520231e-05 70.710678
v  83.146965 -24.99999 55.557022
v  83.146965 9.0513868e-06 55.557018
v  92.387955 -24.999994 38.268345
v  92.387955 6.234704e-06 38.268341
v  98.078522 -24.999996 19.509037
v  98.078522 3.1784248e-06 19.509033
v  100 -25 8.4441563e-06
v  100 7.1214893e-13 4.3711389e-06
v  98.078522 -25.000004 -19.509031
v  98.078522 -3.1784252e-06 -19.509035
v  92.387947 -25.000006 -38.268337
v  92.387947 -6.2347044e-06 -38.268341
v  83.146957 -25.00001 -55.557022
v  83.146957 -9.0513877e-06 -55.557026
v  70.710678 -25.000011 -70.71067
v  70.710678 -1.1520231e-05 -70.710678
v  55.557026 -25.000013 -83.14695
v  55.557026 -1.3546359e-05 -83.146957
v  38.268345 -25.000015 -92.387939
v  38.268345 -1.5051907e-05 -92.387947
v  19.509033 -25.000015 -98.078514
v  19.509033 -1.597902e-05 -98.078522
v  -19.509024 24.999985 -98.078537
v  -19.509024 49.999985 -98.078537
v  0 49.999985 -100.00001
v  0 24.999983 -100.00001
v  -38.268341 24.999985 -92.387962
v  -38.268341 49.999985 -92.387962
v  -55.55703 24.999987 -83.146965
v  -55.55703 49.999985 -83.146965
v  -70.710686 24.999989 -70.710678
v  -70.710686 49.999989 -70.710678
v  -83.146973 24.99999 -55.557011
v  -83.146973 49.999992 -55.557014
v  -92.387947 24.999994 -38.268364
v  -92.387947 49.999992 -38.268368
v  -98.078522 24.999996 -19.509045
v  -98.078522 49.999996 -19.509048
v  -100 25 -5.265505e-06
v  -100 50 -9.3385224e-06
v  -98.078522 25.000004 19.509035
v  -98.078522 50.000004 19.509031
v  -92.387947 25.000006 38.268353
v  -92.387947 50.000008 38.268349
v  -83.14695 25.00001 55.557037
v  -83.14695 50.000008 55.557034
v  -70.71067 25.000011 70.710678
v  -70.71067 50.000011 70.710678
v  -55.55703 25.000013 83.14695
v  -55.55703 50.000015 83.14695
v  -38.268341 25.000015 92.387939
v  -38.268341 50.000015 92.387939
v  -19.509026 25.000015 98.078522
v  -19.509026 50.000015 98.078522
v  -8.7422777e-06 25.000017 99.999992
v  -8.7422777e-06 50.000015 99.999992
v  19.509031 25.000015 98.078522
v  19.509031 50.000015 98.078522
v  38.268349 25.000015 92.387939
v  38.268349 50.000015 92.387939
v  55.557018 25.000013 83.146957
v  55.557018 50.000015 83.146957
v  70.710678 25.000011 70.71067
v  70.710678 50.000011 70.71067
v  83.146965 25.00001 55.557014
v  83.146965 50.000008 55.557011
v  92.387955 25.000006 38.268337
v  92.387955 50.000008 38.268333
v  98.078522 25.000004 19.509029
v  98.078522 50.000004 19.509026
v  100 25 2.981219e-07
v  100 50 -3.774895e-06
v  98.078522 24.999996 -19.509039
v  98.078522 49.999996 -19.509043
v  92.387947 24.999994 -38.268345
v  92.387947 49.999992 -38.268349
v  83.146957 24.99999 -55.55703
v  83.146957 49.999992 -55.557034
v  70.710678 24.999989 -70.710686
v  70.710678 49.999989 -70.710686
v  55.557026 24.999987 -83.146965
v  55.557026 49.999985 -83.146965
v  38.268345 24.999985 -92.387955
v  38.268345 49.999985 -92.387955
v  19.509033 24.999985 -98.078529
v  19.509033 49.999985 -98.078529
v  0 -75.000015 -99.999985
v  0 -50.000015 -99.999992
v  19.509033 -50.000015 -98.078514
v  19.509033 -75.000015 -98.078506
v  38.268345 -50.000015 -92.387939
v  38.268345 -75.000015 -92.387932
v  55.557026 -50.000015 -83.14695
v  55.557026 -75.000015 -83.146942
v  70.710678 -50.000011 -70.71067
v  70.710678 -75.000015 -70.710663
v  83.146957 -50.000008 -55.557018
v  83.146957 -75.000008 -55.557014
v  92.387947 -50.000008 -38.268333
v  92.387947 -75.000008 -38.26833
v  98.078522 -50.000004 -19.509027
v  98.078522 -75 -19.509024
v  100 -50 1.2517173e-05
v  100 -75 1.6590189e-05
v  98.078522 -49.999996 19.509041
v  98.078522 -75 19.509045
v  92.387955 -49.999992 38.268349
v  92.387955 -74.999992 38.268353
v  83.146965 -49.999992 55.557026
v  83.146965 -74.999992 55.55703
v  70.710678 -49.999989 70.710686
v  70.710678 -74.999985 70.710693
v  55.557018 -49.999985 83.146973
v  55.557018 -74.999985 83.14698
v  38.268349 -49.999985 92.387955
v  38.268349 -74.999985 92.387962
v  19.509031 -49.999985 98.078537
v  19.509031 -74.999985 98.078545
v  -8.7422777e-06 -49.999985 100.00001
v  -8.7422777e-06 -74.999985 100.00002
v  -19.509026 -49.999985 98.078537
v  -19.509026 -74.999985 98.078545
v  -38.268341 -49.999985 92.387955
v  -38.268341 -74.999985 92.387962
v  -55.55703 -49.999985 83.146965
v  -55.55703 -74.999985 83.146973
v  -70.71067 -49.999989 70.710693
v  -70.71067 -74.999985 70.710701
v  -83.14695 -49.999992 55.557049
v  -83.14695 -74.999992 55.557053
v  -92.387947 -49.999992 38.268364
v  -92.387947 -74.999992 38.268368
v  -98.078522 -49.999996 19.509047
v  -98.078522 -75 19.50905
v  -100 -50 6.9535458e-06
v  -100 -75 1.1026563e-05
v  -98.078522 -50.000004 -19.509033
v  -98.078522 -75 -19.509029
v  -92.387947 -50.000008 -38.268353
v  -92.387947 -75.000008 -38.268349
v  -83.146973 -50.000008 -55.556999
v  -83.146973 -75.000008 -55.556995
v  -70.710686 -50.000011 -70.710663
v  -70.710686 -75.000015 -70.710655
v  -55.55703 -50.000015 -83.14695
v  -55.55703 -75.000015 -83.146942
v  -38.268341 -50.000015 -92.387947
v  -38.268341 -75.000015 -92.387939
v  -19.509024 -50.000015 -98.078522
v  -19.509024 -75.000015 -98.078514

# 0 UV coordinates

# 53 vertex normals
vn 9.8017292 -1.6213617e-05 -99.518471
vn 29.028463 -1.5590536e-05 -95.694038
vn 47.139671 -1.4368322e-05 -88.192131
vn 63.439335 -1.2593938e-05 -77.301041
vn 77.301041 -1.033558e-05 -63.439335
vn 88.192139 -7.6800252e-06 -47.13966
vn 95.694038 -4.7293379e-06 -29.028469
vn 99.518471 -1.5969036e-06 -9.8017244
vn 99.518478 1.5969047e-06 9.8017311
vn 95.694046 4.7293333e-06 29.028442
vn 88.192131 7.680027e-06 47.139671
vn 77.301041 1.0335581e-05 63.439339
vn 63.439339 1.2593939e-05 77.301041
vn 47.139664 1.436832e-05 88.192123
vn 29.028484 1.5590535e-05 95.694023
vn 9.8016949 1.6213617e-05 99.518471
vn -9.8017063 1.6213617e-05 99.518471
vn -29.028484 1.5590535e-05 95.694023
vn -47.139679 1.436832e-05 88.192123
vn -63.439327 1.259394e-05 77.301048
vn -77.301033 1.0335581e-05 63.439346
vn -88.192108 7.6800334e-06 47.139706
vn -95.694038 4.7293352e-06 29.028452
vn -99.518471 1.5969036e-06 9.8017244
vn -99.518471 -1.5969036e-06 -9.8017244
vn -95.694031 -4.7293393e-06 -29.028479
vn -88.192123 -7.6800252e-06 -47.13966
vn -77.301064 -1.0335574e-05 -63.439304
vn -63.439339 -1.2593939e-05 -77.301041
vn -47.139679 -1.436832e-05 -88.192123
vn 4.7738026e-06 100 -1.6292068e-05
vn -29.028458 -1.5590538e-05 -95.694038
vn -9.8017035 -1.6213617e-05 -99.518471
vn 2.864281e-06 -99.999992 1.6292066e-05
vn -88.192123 -7.680027e-06 -47.139668
vn -95.694031 -4.7293402e-06 -29.028484
vn -99.518471 -1.5969038e-06 -9.8017254
vn -99.518471 1.5969038e-06 9.8017254
vn -95.694038 4.7293361e-06 29.028458
vn 95.694038 4.7293338e-06 29.028446
vn 99.518471 1.5969047e-06 9.8017311
vn 99.518471 -1.5969038e-06 -9.8017254
vn 95.694031 -4.7293383e-06 -29.028473
vn 88.192139 -7.680027e-06 -47.139668
vn 88.192131 -7.680027e-06 -47.139671
vn 95.694038 -4.7293393e-06 -29.028479
vn 99.518478 -1.596904e-06 -9.8017263
vn 99.518471 1.5969048e-06 9.8017321
vn 95.694038 4.7293352e-06 29.028452
vn -99.518478 1.596904e-06 9.8017263
vn -99.518478 -1.596904e-06 -9.8017263
vn -95.694038 -4.7293415e-06 -29.02849
vn -88.192131 -7.6800279e-06 -47.139679

# Mesh 'Cylinder' with 258 faces
g Cylinder
usemtl Material
f  1//1 2//1 3//1 4//1
f  4//2 3//2 5//2 6//2
f  6//3 5//3 7//3 8//3
f  8//4 7//4 9//4 10//4
f  10//5 9//5 11//5 12//5
f  12//6 11//6 13//6 14//6
f  14//7 13//7 15//7 16//7
f  16//8 15//8 17//8 18//8
f  18//9 17//9 19//9 20//9
f  20//10 19//10 21//10 22//10
f  22//11 21//11 23//11 24//11
f  24//12 23//12 25//12 26//12
f  26//13 25//13 27//13 28//13
f  28//14 27//14 29//14 30//14
f  30//15 29//15 31//15 32//15
f  32//16 31//16 33//16 34//16
f  34//17 33//17 35//17 36//17
f  36//18 35//18 37//18 38//18
f  38//19 37//19 39//19 40//19
f  40//20 39//20 41//20 42//20
f  42//21 41//21 43//21 44//21
f  44//22 43//22 45//22 46//22
f  46//23 45//23 47//23 48//23
f  48//24 47//24 49//24 50//24
f  50//25 49//25 51//25 52//25
f  52//26 51//26 53//26 54//26
f  54//27 53//27 55//27 56//27
f  56//28 55//28 57//28 58//28
f  58//29 57//29 59//29 60//29
f  60//30 59//30 61//30 62//30
f  3//31 2//31 63//31 61//31 59//31 57//31 55//31 53//31 51//31 49//31 47//31 45//31 43//31 41//31 39//31 37//31 35//31 33//31 31//31 29//31 27//31 25//31 23//31 21//31 19//31 17//31 15//31 13//31 11//31 9//31 7//31 5//31
f  62//32 61//32 63//32 64//32
f  64//33 63//33 2//33 1//33
f  65//34 66//34 67//34 68//34 69//34 70//34 71//34 72//34 73//34 74//34 75//34 76//34 77//34 78//34 79//34 80//34 81//34 82//34 83//34 84//34 85//34 86//34 87//34 88//34 89//34 90//34 91//34 92//34 93//34 94//34 95//34 96//34
f  97//33 98//33 99//33 100//33
f  101//32 102//32 98//32 97//32
f  103//30 104//30 102//30 101//30
f  105//29 106//29 104//29 103//29
f  107//28 108//28 106//28 105//28
f  109//35 110//35 108//35 107//35
f  111//36 112//36 110//36 109//36
f  113//37 114//37 112//37 111//37
f  115//38 116//38 114//38 113//38
f  117//39 118//39 116//39 115//39
f  119//22 120//22 118//22 117//22
f  121//21 122//21 120//21 119//21
f  123//20 124//20 122//20 121//20
f  125//19 126//19 124//19 123//19
f  127//18 128//18 126//18 125//18
f  129//17 130//17 128//17 127//17
f  131//16 132//16 130//16 129//16
f  133//15 134//15 132//15 131//15
f  135//14 136//14 134//14 133//14
f  137//13 138//13 136//13 135//13
f  139//12 140//12 138//12 137//12
f  141//11 142//11 140//11 139//11
f  143//40 144//40 142//40 141//40
f  145//41 146//41 144//41 143//41
f  147//42 148//42 146//42 145//42
f  149//43 150//43 148//43 147//43
f  151//44 152//44 150//44 149//44
f  153//5 154//5 152//5 151//5
f  155//4 156//4 154//4 153//4
f  157//3 158//3 156//3 155//3
f  159//2 160//2 158//2 157//2
f  100//1 99//1 160//1 159//1
f  161//33 162//33 163//33 164//33
f  165//32 166//32 162//32 161//32
f  167//30 168//30 166//30 165//30
f  169//29 170//29 168//29 167//29
f  171//28 172//28 170//28 169//28
f  173//35 174//35 172//35 171//35
f  175//36 176//36 174//36 173//36
f  177//37 178//37 176//37 175//37
f  179//38 180//38 178//38 177//38
f  181//39 182//39 180//39 179//39
f  183//22 184//22 182//22 181//22
f  185//21 186//21 184//21 183//21
f  187//20 188//20 186//20 185//20
f  189//19 190//19 188//19 187//19
f  191//18 192//18 190//18 189//18
f  193//17 194//17 192//17 191//17
f  195//16 196//16 194//16 193//16
f  197//15 198//15 196//15 195//15
f  199//14 200//14 198//14 197//14
f  201//13 202//13 200//13 199//13
f  203//12 204//12 202//12 201//12
f  205//11 206//11 204//11 203//11
f  207//40 208//40 206//40 205//40
f  209//41 210//41 208//41 207//41
f  211//42 212//42 210//42 209//42
f  213//43 214//43 212//43 211//43
f  215//44 216//44 214//44 213//44
f  217//5 218//5 216//5 215//5
f  219//4 220//4 218//4 217//4
f  221//3 222//3 220//3 219//3
f  223//2 224//2 222//2 221//2
f  164//1 163//1 224//1 223//1
f  225//1 226//1 227//1 228//1
f  228//2 227//2 229//2 230//2
f  230//3 229//3 231//3 232//3
f  232//4 231//4 233//4 234//4
f  234//5 233//5 235//5 236//5
f  236//45 235//45 237//45 238//45
f  238//46 237//46 239//46 240//46
f  240//47 239//47 241//47 242//47
f  242//48 241//48 243//48 244//48
f  244//49 243//49 245//49 246//49
f  246//11 245//11 247//11 248//11
f  248//12 247//12 249//12 250//12
f  250//13 249//13 251//13 252//13
f  252//14 251//14 253//14 254//14
f  254//15 253//15 255//15 256//15
f  256//16 255//16 257//16 258//16
f  258//17 257//17 259//17 260//17
f  260//18 259//18 261//18 262//18
f  262//19 261//19 263//19 264//19
f  264//20 263//20 265//20 266//20
f  266//21 265//21 267//21 268//21
f  268//22 267//22 269//22 270//22
f  270//39 269//39 271//39 272//39
f  272//50 271//50 273//50 274//50
f  274//51 273//51 275//51 276//51
f  276//52 275//52 277//52 278//52
f  278//53 277//53 279//53 280//53
f  280//28 279//28 281//28 282//28
f  282//29 281//29 283//29 284//29
f  284//30 283//30 285//30 286//30
f  286//32 285//32 287//32 288//32
f  288//33 287//33 226//33 225//33
f  226//1 100//1 159//1 227//1
f  227//2 159//2 157//2 229//2
f  229//3 157//3 155//3 231//3
f  231//4 155//4 153//4 233//4
f  233//5 153//5 151//5 235//5
f  235//44 151//44 149//44 237//44
f  237//43 149//43 147//43 239//43
f  239//42 147//42 145//42 241//42
f  241//41 145//41 143//41 243//41
f  243//40 143//40 141//40 245//40
f  245//11 141//11 139//11 247//11
f  247//12 139//12 137//12 249//12
f  249//13 137//13 135//13 251//13
f  251//14 135//14 133//14 253//14
f  253//15 133//15 131//15 255//15
f  255//16 131//16 129//16 257//16
f  257//17 129//17 127//17 259//17
f  259//18 127//18 125//18 261//18
f  261//19 125//19 123//19 263//19
f  263//20 123//20 121//20 265//20
f  265//21 121//21 119//21 267//21
f  267//22 119//22 117//22 269//22
f  269//39 117//39 115//39 271//39
f  271//38 115//38 113//38 273//38
f  273//37 113//37 111//37 275//37
f  275//36 111//36 109//36 277//36
f  277//35 109//35 107//35 279//35
f  279//28 107//28 105//28 281//28
f  281//29 105//29 103//29 283//29
f  283//30 103//30 101//30 285//30
f  285//32 101//32 97//32 287//32
f  287//33 97//33 100//33 226//33
f  99//1 164//1 223//1 160//1
f  160//2 223//2 221//2 158//2
f  158//3 221//3 219//3 156//3
f  156//4 219//4 217//4 154//4
f  154//5 217//5 215//5 152//5
f  152//44 215//44 213//44 150//44
f  150//43 213//43 211//43 148//43
f  148//42 211//42 209//42 146//42
f  146//41 209//41 207//41 144//41
f  144//40 207//40 205//40 142//40
f  142//11 205//11 203//11 140//11
f  140//12 203//12 201//12 138//12
f  138//13 201//13 199//13 136//13
f  136//14 199//14 197//14 134//14
f  134//15 197//15 195//15 132//15
f  132//16 195//16 193//16 130//16
f  130//17 193//17 191//17 128//17
f  128//18 191//18 189//18 126//18
f  126//19 189//19 187//19 124//19
f  124//20 187//20 185//20 122//20
f  122//21 185//21 183//21 120//21
f  120//22 183//22 181//22 118//22
f  118//39 181//39 179//39 116//39
f  116//38 179//38 177//38 114//38
f  114//37 177//37 175//37 112//37
f  112//36 175//36 173//36 110//36
f  110//35 173//35 171//35 108//35
f  108//28 171//28 169//28 106//28
f  106//29 169//29 167//29 104//29
f  104//30 167//30 165//30 102//30
f  102//32 165//32 161//32 98//32
f  98//33 161//33 164//33 99//33
f  162//33 64//33 1//33 163//33
f  166//32 62//32 64//32 162//32
f  168//30 60//30 62//30 166//30
f  170//29 58//29 60//29 168//29
f  172//28 56//28 58//28 170//28
f  174//53 54//53 56//53 172//53
f  176//52 52//52 54//52 174//52
f  178//51 50//51 52//51 176//51
f  180//50 48//50 50//50 178//50
f  182//39 46//39 48//39 180//39
f  184//22 44//22 46//22 182//22
f  186//21 42//21 44//21 184//21
f  188//20 40//20 42//20 186//20
f  190//19 38//19 40//19 188//19
f  192//18 36//18 38//18 190//18
f  194//17 34//17 36//17 192//17
f  196//16 32//16 34//16 194//16
f  198//15 30//15 32//15 196//15
f  200//14 28//14 30//14 198//14
f  202//13 26//13 28//13 200//13
f  204//12 24//12 26//12 202//12
f  206//11 22//11 24//11 204//11
f  208//49 20//49 22//49 206//49
f  210//48 18//48 20//48 208//48
f  212//47 16//47 18//47 210//47
f  214//46 14//46 16//46 212//46
f  216//45 12//45 14//45 214//45
f  218//5 10//5 12//5 216//5
f  220//4 8//4 10//4 218//4
f  222//3 6//3 8//3 220//3
f  224//2 4//2 6//2 222//2
f  163//1 1//1 4//1 224//1
f  96//33 288//33 225//33 65//33
f  95//32 286//32 288//32 96//32
f  94//30 284//30 286//30 95//30
f  93//29 282//29 284//29 94//29
f  92//28 280//28 282//28 93//28
f  91//27 278//27 280//27 92//27
f  90//26 276//26 278//26 91//26
f  89//25 274//25 276//25 90//25
f  88//24 272//24 274//24 89//24
f  87//23 270//23 272//23 88//23
f  86//22 268//22 270//22 87//22
f  85//21 266//21 268//21 86//21
f  84//20 264//20 266//20 85//20
f  83//19 262//19 264//19 84//19
f  82//18 260//18 262//18 83//18
f  81//17 258//17 260//17 82//17
f  80//16 256//16 258//16 81//16
f  79//15 254//15 256//15 80//15
f  78//14 252//14 254//14 79//14
f  77//13 250//13 252//13 78//13
f  76//12 248//12 250//12 77//12
f  75//11 246//11 248//11 76//11
f  74//10 244//10 246//10 75//10
f  73//9 242//9 244//9 74//9
f  72//8 240//8 242//8 73//8
f  71//7 238//7 240//7 72//7
f  70//6 236//6 238//6 71//6
f  69//5 234//5 236//5 70//5
f  68//4 232//4 234//4 69//4
f  67//3 230//3 232//3 68//3
f  66//2 228//2 230//2 67//2
f  65//1 225//1 228//1 66//1

